<svg id="icon-google-ffffff" xmlns="http://www.w3.org/2000/svg" width="18" height="18" viewBox="0 0 18 18"><defs><clipPath id="clip-path"><path id="Path_56203" data-name="Path 56203" class="cls-1" d="M18.242 8.879h-7.834v3.248h4.51c-.42 2.064-2.178 3.248-4.51 3.248a4.968 4.968 0 110-9.936 4.861 4.861 0 013.1 1.108L15.949 4.1a8.4 8.4 0 10-5.541 14.713c4.2 0 8.025-3.057 8.025-8.408a6.975 6.975 0 00-.191-1.526z" transform="translate(-2 -2)"/></clipPath><style>.cls-1{fill:#fff}.cls-3{clip-path:url(#clip-path)}</style></defs><path id="area" fill="none" d="M0 0h18v18H0z"/><g id="Google__G__Logo" transform="translate(.6 .601)"><g id="Group_103" data-name="Group 103" class="cls-3"><path id="Path_56202" data-name="Path 56202" class="cls-1" d="M0 20.936V11l6.5 4.968z" transform="translate(-.764 -7.561)"/></g><g id="Group_104" data-name="Group 104" class="cls-3"><path id="Path_56204" data-name="Path 56204" class="cls-1" d="M0 4.2l6.5 4.972 2.672-2.331 9.172-1.49V0H0z" transform="translate(-.764 -.764)"/></g><g id="Group_105" data-name="Group 105" class="cls-3"><path id="Path_56206" data-name="Path 56206" class="cls-1" d="M0 14.14l11.465-8.79 3.019.382L18.344 0v18.344H0z" transform="translate(-.764 -.764)"/></g><g id="Group_106" data-name="Group 106" class="cls-3"><path id="Path_56208" data-name="Path 56208" class="cls-1" d="M26.376 25.14l-11.847-9.172L13 14.822 26.376 11z" transform="translate(-8.796 -7.561)"/></g></g></svg>